<svg id="icons" enable-background="new 0 0 64 64" height="512" viewBox="0 0 64 64" width="512" xmlns="http://www.w3.org/2000/svg"><path d="m40.002 34.507c-.551 0-1.451 0-2 0h-1c-.551 0-1.451 0-2 0h-6c-.551 0-1 .45-1 1v9.99c0 .55.449 1 1 1h17c.549 0 1-.45 1-1v-9.99c0-.55-.451-1-1-1z" fill="#f6bb42"/><path d="m46.002 34.507h-2.002c.549 0 1 .45 1 1v9.99c0 .55-.451 1-1 1h2.002c.549 0 1-.45 1-1v-9.99c0-.55-.451-1-1-1z" fill="#edab37"/><path d="m21.002 34.507c-.551 0-1.451 0-2 0h-1c-.551 0-1.451 0-2 0h-6c-.551 0-1 .45-1 1v9.99c0 .55.449 1 1 1h17c.549 0 1-.45 1-1v-9.99c0-.55-.451-1-1-1z" fill="#ffce54"/><path d="m27.002 34.507h-2.002c.549 0 1 .45 1 1v9.99c0 .55-.451 1-1 1h2.002c.549 0 1-.45 1-1v-9.99c0-.55-.451-1-1-1z" fill="#f6bb42"/><path d="m40.002 24.507c-.551 0-1.451 0-2 0h-1c-.551 0-1.451 0-2 0h-6c-.551 0-1 .45-1 1v8c0 .55.449 1 1 1h6 2 1 2 6c.549 0 1-.45 1-1v-3.989c0-.55 0-1.45 0-2v-2.011c0-.55-.451-1-1-1z" fill="#ffce54"/><path d="m46.002 24.507h-2.002c.549 0 1 .45 1 1v2.011 2 3.989c0 .55-.451 1-1 1h2.002c.549 0 1-.45 1-1v-3.989c0-.55 0-1.45 0-2v-2.011c0-.55-.451-1-1-1z" fill="#f6bb42"/><path d="m57.002 28.518c-.551 0-1.451 0-2 0h-1c-.551 0-1.451 0-2 0h-4c-.551 0-1 .45-1 1v3.989 2 9.99c0 .55.449 1 1 1h12c.549 0 1-.45 1-1v-15.979c0-.55-.451-1-1-1z" fill="#ffce54"/><path d="m60.002 28.518h-2.002c.549 0 1 .45 1 1v15.979c0 .55-.451 1-1 1h2.002c.549 0 1-.45 1-1v-15.979c0-.55-.451-1-1-1z" fill="#f6bb42"/><path d="m21.002 20.507c-.551 0-1.451 0-2 0h-1c-.551 0-1.451 0-2 0h-6c-.551 0-1 .45-1 1v12c0 .55.449 1 1 1h6 2 1 2 6c.549 0 1-.45 1-1v-8c0-.55 0-1.45 0-2v-2c0-.55-.451-1-1-1z" fill="#f6bb42"/><path d="m27.002 20.507h-2.002c.549 0 1 .45 1 1v2 2 8c0 .55-.451 1-1 1h2.002c.549 0 1-.45 1-1v-8c0-.55 0-1.45 0-2v-2c0-.55-.451-1-1-1z" fill="#edab37"/><path d="m57.451 50.096c.939.63 1.551 1.699 1.551 2.909 0 1.931-1.57 3.5-3.5 3.5s-3.5-1.569-3.5-3.5c0-1.21.609-2.279 1.549-2.899h.01l1.441 2.399h1z" fill="#656d78"/><path d="m14.002 52.505 1.449-2.409c.939.63 1.551 1.699 1.551 2.909 0 1.931-1.561 3.5-3.5 3.5-1.93 0-3.5-1.569-3.5-3.5 0-1.21.619-2.279 1.549-2.899h.01l1.441 2.399z" fill="#656d78"/><path d="m15.451 50.096 1.551-2.591h-7l1.559 2.601 1.477 2.58c.01.024.025.044.039.067l.027.048h.006c.09.121.229.204.393.204.162 0 .301-.083.393-.204h.004l.021-.039c.018-.026.035-.05.045-.079z" fill="#ccd1d9"/><path d="m57.451 50.096 1.551-2.591h-7l1.559 2.601 1.477 2.58c.01.024.025.044.039.067l.027.048h.006c.09.121.229.204.393.204.162 0 .301-.083.393-.204h.004l.021-.039c.018-.026.035-.05.045-.079z" fill="#ccd1d9"/><g fill="#e6e9ed"><path d="m52.002 49.507h-35-7-2.5c-.82 0-1.5-.67-1.5-1.5v-33.39l-4.561-4.56c-.59-.59-.59-1.53 0-2.12s1.541-.59 2.119 0l5 5c.291.28.441.66.441 1.06v6.51 14 11.99h19 19v.01h14v-.01h.5c.83 0 1.5.67 1.5 1.5s-.67 1.5-1.5 1.5l-2.5.01z"/><path d="m17.002 20.517v1.99c0 .55.451 1 1 1h1c.549 0 1-.45 1-1v-1.99z"/><path d="m17.002 34.512v1.989c0 .551.451 1 1 1h1c.549 0 1-.449 1-1v-1.989z"/><path d="m36.002 34.512v1.989c0 .551.451 1 1 1h1c.549 0 1-.449 1-1v-1.989z"/><path d="m53.002 28.518v1.989c0 .551.451 1 1 1h1c.549 0 1-.449 1-1v-1.989z"/><path d="m36.002 24.513v1.988c0 .551.451 1 1 1h1c.549 0 1-.449 1-1v-1.988z"/></g></svg>