<?xml version="1.0" encoding="iso-8859-1"?>
<!-- Generator: Adobe Illustrator 16.0.0, SVG Export Plug-In . SVG Version: 6.00 Build 0)  -->
<!DOCTYPE svg PUBLIC "-//W3C//DTD SVG 1.1//EN" "http://www.w3.org/Graphics/SVG/1.1/DTD/svg11.dtd">
<svg version="1.1" id="Capa_1" xmlns="http://www.w3.org/2000/svg" xmlns:xlink="http://www.w3.org/1999/xlink" x="0px" y="0px"
	 width="409.511px" height="409.511px" viewBox="0 0 409.511 409.511" style="enable-background:new 0 0 409.511 409.511;"
	 xml:space="preserve">
<g>
	<path d="M347.559,41.836C312.655,14.822,266.396,0,217.389,0S122.122,14.822,87.219,41.836
		C51.36,69.567,31.518,106.741,31.518,146.545s19.723,76.979,55.702,104.71c34.903,27.014,81.162,41.836,130.169,41.836
		s95.267-14.822,130.17-41.836c35.859-27.731,55.701-64.906,55.701-104.71C403.26,106.86,383.537,69.687,347.559,41.836z
		 M258.747,242.17c0.478,0.239,1.195,0.837,1.075,1.913c-0.478,3.824-6.812,13.028-12.191,20.918
		c-9.802,1.434-19.843,2.151-30.122,2.151c-9.562,0-19.006-0.598-28.21-1.913c-5.618-8.008-12.79-17.451-13.268-21.276
		c-0.12-1.075,0.598-1.673,1.076-1.912c26.297-10.997,30.48-38.729,22.831-43.271c-11.355-6.933-20.44-20.918-23.069-30.122
		c-2.869-9.682-2.51-26.774-2.51-38.011c0,0,0-0.837,1.434-0.837c11.834,0,36.936,0,56.897,0c2.63,0,14.105-14.583,16.496-14.583
		c2.749,0-3.228,14.583-0.956,14.583c5.498,0,9.323,0,11.355,0c1.434,0,1.434,0.837,1.434,0.837c0,9.323,0.837,28.09-2.031,37.892
		c-2.63,9.084-11.117,22.591-23.07,30.122C229.103,203.083,232.45,230.814,258.747,242.17z M279.067,257.829
		c-1.554,0.478-5.021,0.836-3.228-3.348c4.303-8.128,6.933-14.582,9.562-29.644c5.021-27.731,29.764-171.527-66.818-171.527
		c-0.358,0-1.075,0-1.435,0c-100.047,0-71.838,143.796-66.818,171.527c2.151,11.953,5.14,21.396,8.487,28.808
		c0.956,2.151,2.151,6.096-3.228,4.184c-60.841-17.094-98.016-59.407-98.016-111.164c0-66.46,71.719-120.607,159.934-120.607
		c88.214,0,159.933,54.028,159.933,120.607C377.322,196.629,336.682,239.66,279.067,257.829z M87.697,278.508
		c-3.466-0.598-6.933-0.956-10.28-0.956c-21.994,0-39.685,12.789-43.151,31.078c-3.944,21.276,13.626,42.553,39.087,47.215
		c3.466,0.598,6.933,0.956,10.28,0.956l0,0c21.994,0,39.684-12.79,43.15-31.078C130.848,304.446,113.277,283.289,87.697,278.508z
		 M101.324,320.941c-1.076,5.618-8.606,9.802-17.571,9.802c-1.793,0-3.705-0.12-5.618-0.479
		c-12.192-2.271-19.484-10.758-18.289-16.974c1.076-5.618,8.606-9.802,17.571-9.802c1.793,0,3.706,0.12,5.618,0.479
		C95.228,306.358,102.399,314.845,101.324,320.941z M59.846,393.258c-2.151,11.355-15.778,18.407-30.48,15.658
		c-14.702-2.749-24.982-14.104-22.83-25.579c2.151-11.355,15.778-18.408,30.48-15.659C51.718,370.427,61.998,381.902,59.846,393.258
		z"/>
</g>
<g>
</g>
<g>
</g>
<g>
</g>
<g>
</g>
<g>
</g>
<g>
</g>
<g>
</g>
<g>
</g>
<g>
</g>
<g>
</g>
<g>
</g>
<g>
</g>
<g>
</g>
<g>
</g>
<g>
</g>
</svg>
