<svg id="Flat" height="512" viewBox="0 0 512 512" width="512" xmlns="http://www.w3.org/2000/svg"><path d="m80 280h352v208h-352z" fill="#f7b030"/><path d="m272 280h160v208h-160z" fill="#f78a25"/><path d="m464 320h-160l-32-40h160z" fill="#bd620e"/><path d="m48 320h192l32-40h-192z" fill="#bd620e"/><path d="m423.029 127.029h33.941v33.941h-33.941z" fill="#ffd33a" transform="matrix(.707 -.707 .707 .707 27.05 353.304)"/><path d="m87.029 31.029h33.941v33.941h-33.941z" fill="#ffd33a" transform="matrix(.707 -.707 .707 .707 -3.48 87.598)"/><path d="m320 208h-128a24.012 24.012 0 1 0 22.624 16h66.752a24 24 0 1 0 44.927-.846 24 24 0 0 0 3.074-45.245l14.43-72.152 6.439-25.757h17.754a8 8 0 0 0 0-16h-24a8 8 0 0 0 -7.761 6.06l-6.485 25.94h-153.754a8 8 0 0 0 -7.845 9.569l16 80a8 8 0 0 0 7.845 6.431h128a8 8 0 0 1 0 16zm-128 32a8 8 0 1 1 8-8 8.009 8.009 0 0 1 -8 8zm112 0a8 8 0 1 1 8-8 8.009 8.009 0 0 1 -8 8zm-113.442-104-4.8-24h23l2.4 24zm8 40-4.8-24h19l2.4 24zm49.442 0h-16.76l-2.4-24h19.16zm0-40h-20.76l-2.4-24h23.16zm32.76 40h-16.76v-24h19.16zm4-40h-20.76v-24h23.16zm28.681 40h-16.6l2.4-24h19zm8-40h-20.6l2.4-24h23z" fill="#eb423f"/></svg>